<svg xmlns="http://www.w3.org/2000/svg" viewBox="0 0 64 64" role="img" aria-label="Growing tree">
  <rect width="64" height="64" rx="12" fill="#f8f8f8"/>
  <path d="M32 53V18" fill="none" stroke="#111111" stroke-width="4.5" stroke-linecap="round"/>
  <path d="M32 39C23 38 17 32 15 24c8 0 15 4 17 15Z" fill="#111111"/>
  <path d="M33 32c9-1 15-7 16-16-8 1-14 6-16 16Z" fill="#111111"/>
  <path d="M32 24c-6-4-8-11-5-18 6 4 8 11 5 18Z" fill="#111111"/>
  <path d="M31 46c-7 0-13-4-17-10 7-2 14 1 17 10Z" fill="#111111"/>
  <path d="M34 45c7 0 13-4 16-11-7-1-14 2-16 11Z" fill="#111111"/>
  <path d="M22 54h20" fill="none" stroke="#111111" stroke-width="4.5" stroke-linecap="round"/>
</svg>
